<svg width="107" height="33" viewBox="0 0 107 33" fill="none" xmlns="http://www.w3.org/2000/svg">
<path d="M11.832 23.216C11.544 22.704 11.296 22.272 11.088 21.92C10.896 21.552 10.72 21.2 10.56 20.864C10.4 20.528 10.216 20.176 10.008 19.808C9.72 19.232 9.44 18.72 9.168 18.272C8.896 17.824 8.584 17.384 8.232 16.952C7.88 16.504 7.44 16.016 6.912 15.488L7.656 15.776C7.224 15.792 6.832 15.8 6.48 15.8C6.144 15.8 5.808 15.792 5.472 15.776L5.496 14.528C5.736 14.56 5.944 14.584 6.12 14.6C6.296 14.616 6.48 14.624 6.672 14.624C7.488 14.624 8.224 14.504 8.88 14.264C9.552 14.008 10.08 13.624 10.464 13.112C10.864 12.6 11.064 11.936 11.064 11.12C11.064 10.16 10.776 9.384 10.2 8.792C9.624 8.2 8.664 7.904 7.32 7.904C6.984 7.904 6.68 7.92 6.408 7.952C6.136 7.984 5.848 8.04 5.544 8.12L5.664 7.736V19.688C5.664 20.264 5.712 20.712 5.808 21.032C5.904 21.352 6.064 21.576 6.288 21.704C6.512 21.816 6.816 21.888 7.2 21.92C7.248 22.064 7.28 22.24 7.296 22.448C7.312 22.656 7.32 22.864 7.32 23.072C6.984 23.04 6.624 23.016 6.24 23C5.856 23 5.488 23 5.136 23C4.784 23 4.488 23 4.248 23C3.8 23 3.288 23 2.712 23C2.136 23.016 1.648 23.04 1.248 23.072C1.248 22.864 1.256 22.664 1.272 22.472C1.288 22.264 1.32 22.08 1.368 21.92C1.8 21.888 2.136 21.808 2.376 21.68C2.616 21.552 2.784 21.336 2.88 21.032C2.976 20.728 3.024 20.296 3.024 19.736V10.04C3.024 9.464 2.976 9.024 2.88 8.72C2.784 8.416 2.616 8.2 2.376 8.072C2.136 7.944 1.8 7.872 1.368 7.856C1.32 7.68 1.288 7.496 1.272 7.304C1.256 7.096 1.248 6.904 1.248 6.728C1.52 6.744 1.944 6.76 2.52 6.776C3.112 6.776 3.712 6.776 4.32 6.776C4.944 6.776 5.608 6.768 6.312 6.752C7.032 6.736 7.752 6.728 8.472 6.728C9.72 6.728 10.736 6.912 11.52 7.28C12.304 7.632 12.88 8.12 13.248 8.744C13.632 9.352 13.824 10.048 13.824 10.832C13.824 11.616 13.64 12.32 13.272 12.944C12.92 13.568 12.416 14.088 11.76 14.504C11.12 14.904 10.36 15.192 9.48 15.368L9.672 15.08C10.12 15.496 10.496 15.896 10.8 16.28C11.12 16.664 11.44 17.12 11.76 17.648C12.096 18.16 12.496 18.816 12.96 19.616C13.264 20.16 13.544 20.592 13.8 20.912C14.056 21.216 14.344 21.44 14.664 21.584C15 21.728 15.44 21.816 15.984 21.848C15.984 22.056 15.976 22.256 15.96 22.448C15.944 22.624 15.912 22.808 15.864 23C15.16 23 14.456 23.008 13.752 23.024C13.048 23.056 12.408 23.12 11.832 23.216ZM22.5821 23.216C21.4461 23.216 20.4541 22.984 19.6061 22.52C18.7741 22.04 18.1261 21.376 17.6621 20.528C17.2141 19.68 16.9901 18.68 16.9901 17.528C16.9901 16.408 17.2301 15.416 17.7101 14.552C18.2061 13.688 18.8781 13.016 19.7261 12.536C20.5741 12.04 21.5341 11.792 22.6061 11.792C23.8061 11.792 24.8221 12.032 25.6541 12.512C26.4861 12.992 27.1181 13.656 27.5501 14.504C27.9821 15.352 28.1981 16.344 28.1981 17.48C28.1981 18.584 27.9661 19.576 27.5021 20.456C27.0381 21.32 26.3821 22 25.5341 22.496C24.7021 22.976 23.7181 23.216 22.5821 23.216ZM22.8221 21.944C23.7181 21.944 24.3821 21.568 24.8141 20.816C25.2461 20.048 25.4621 19.056 25.4621 17.84C25.4621 16.848 25.3181 15.992 25.0301 15.272C24.7581 14.536 24.3821 13.984 23.9021 13.616C23.4381 13.232 22.9261 13.04 22.3661 13.04C21.4861 13.04 20.8301 13.408 20.3981 14.144C19.9661 14.88 19.7501 15.824 19.7501 16.976C19.7501 18 19.8701 18.888 20.1101 19.64C20.3661 20.392 20.7261 20.968 21.1901 21.368C21.6541 21.752 22.1981 21.944 22.8221 21.944ZM39.2368 21.272C38.8048 21.912 38.2608 22.4 37.6048 22.736C36.9488 23.056 36.1648 23.216 35.2528 23.216C34.3568 23.216 33.5168 23.008 32.7328 22.592C31.9488 22.16 31.3008 21.528 30.7888 20.696C30.2928 19.848 30.0448 18.8 30.0448 17.552C30.0448 16.592 30.2448 15.672 30.6448 14.792C31.0448 13.912 31.6288 13.192 32.3968 12.632C33.1648 12.072 34.1008 11.792 35.2048 11.792C35.9888 11.792 36.6928 11.88 37.3168 12.056C37.9408 12.232 38.4848 12.496 38.9488 12.848C38.8848 13.312 38.8368 13.776 38.8048 14.24C38.7728 14.688 38.7568 15.16 38.7568 15.656C38.5968 15.736 38.3888 15.792 38.1328 15.824C37.8768 15.856 37.6448 15.872 37.4368 15.872C37.3568 14.944 37.1088 14.24 36.6928 13.76C36.2768 13.264 35.7328 13.016 35.0608 13.016C34.3248 13.016 33.7328 13.384 33.2848 14.12C32.8528 14.84 32.6368 15.864 32.6368 17.192C32.6368 17.96 32.7648 18.696 33.0208 19.4C33.2768 20.088 33.6528 20.648 34.1488 21.08C34.6608 21.512 35.2848 21.728 36.0208 21.728C36.5328 21.728 37.0128 21.616 37.4608 21.392C37.9088 21.168 38.3008 20.856 38.6368 20.456C38.7808 20.536 38.9008 20.648 38.9968 20.792C39.1088 20.936 39.1888 21.096 39.2368 21.272ZM40.3082 23.072C40.3082 22.88 40.3162 22.68 40.3322 22.472C40.3482 22.264 40.3802 22.08 40.4282 21.92C41.0682 21.904 41.5002 21.752 41.7242 21.464C41.9642 21.176 42.0842 20.632 42.0842 19.832V9.344C42.0842 8.96 42.0442 8.648 41.9642 8.408C41.8842 8.152 41.7162 7.96 41.4602 7.832C41.2042 7.704 40.8122 7.64 40.2842 7.64C40.2842 7.448 40.3002 7.264 40.3322 7.088C40.3642 6.912 40.4202 6.752 40.5002 6.608C40.8362 6.608 41.2442 6.568 41.7242 6.488C42.2042 6.408 42.6522 6.304 43.0682 6.176C43.5002 6.048 43.8202 5.92 44.0282 5.792C44.1882 5.856 44.3242 5.968 44.4362 6.128C44.5482 6.288 44.6042 6.528 44.6042 6.848V19.832C44.6042 20.616 44.7082 21.16 44.9162 21.464C45.1242 21.752 45.4762 21.904 45.9722 21.92C46.0202 22.08 46.0522 22.272 46.0682 22.496C46.0842 22.72 46.0922 22.912 46.0922 23.072C45.6922 23.04 45.2442 23.016 44.7482 23C44.2522 23 43.7482 23 43.2362 23C42.9002 23 42.5482 23 42.1802 23C41.8282 23.016 41.4922 23.024 41.1722 23.024C40.8522 23.04 40.5642 23.056 40.3082 23.072ZM49.0922 23.216C48.8362 22.816 48.5162 22.36 48.1322 21.848C47.7482 21.336 47.3322 20.808 46.8842 20.264C46.4362 19.704 45.9802 19.16 45.5162 18.632C45.0522 18.104 44.6122 17.632 44.1962 17.216L46.3562 15.248C46.8682 14.784 47.2282 14.408 47.4362 14.12C47.6602 13.832 47.7722 13.616 47.7722 13.472C47.7722 13.344 47.7162 13.248 47.6042 13.184C47.4922 13.12 47.3242 13.088 47.1002 13.088C47.0362 12.896 46.9882 12.712 46.9562 12.536C46.9402 12.344 46.9322 12.152 46.9322 11.96C47.2522 11.976 47.5722 11.992 47.8922 12.008C48.2122 12.008 48.5242 12.008 48.8282 12.008C49.1322 12.008 49.4122 12.008 49.6682 12.008C49.9722 12.008 50.3162 12.008 50.7002 12.008C51.1002 11.992 51.5082 11.976 51.9242 11.96C51.9242 12.152 51.9082 12.352 51.8762 12.56C51.8602 12.752 51.8122 12.928 51.7322 13.088C51.4122 13.104 51.1002 13.16 50.7962 13.256C50.4922 13.352 50.1802 13.504 49.8602 13.712C49.5402 13.904 49.1802 14.184 48.7802 14.552L46.3082 16.808L46.2122 15.92C46.8202 16.528 47.4282 17.176 48.0362 17.864C48.6602 18.552 49.3802 19.4 50.1962 20.408C50.4842 20.776 50.7402 21.056 50.9642 21.248C51.1882 21.44 51.4202 21.584 51.6602 21.68C51.9002 21.76 52.1962 21.816 52.5482 21.848C52.5482 22.088 52.5322 22.304 52.5002 22.496C52.4842 22.688 52.4522 22.856 52.4042 23C52.0042 23 51.6202 23.008 51.2522 23.024C50.8842 23.04 50.5162 23.056 50.1482 23.072C49.7962 23.104 49.4442 23.152 49.0922 23.216ZM58.8801 23.216C57.6801 23.216 56.6881 22.96 55.9041 22.448C55.1361 21.936 54.5521 21.248 54.1521 20.384C53.7681 19.52 53.5761 18.568 53.5761 17.528C53.5761 16.472 53.7841 15.512 54.2001 14.648C54.6161 13.784 55.2081 13.096 55.9761 12.584C56.7601 12.056 57.6801 11.792 58.7361 11.792C59.8081 11.792 60.6721 12.016 61.3281 12.464C61.9841 12.912 62.4721 13.512 62.7921 14.264C63.1281 15.016 63.3201 15.864 63.3681 16.808C63.3041 17.176 63.1681 17.48 62.9601 17.72C62.6401 17.72 62.2001 17.72 61.6401 17.72C61.0961 17.72 60.4801 17.728 59.7921 17.744C59.1201 17.744 58.4241 17.76 57.7041 17.792C57.0001 17.808 56.3361 17.832 55.7121 17.864V16.544H60.6561C60.6561 15.488 60.4721 14.64 60.1041 14C59.7521 13.36 59.2401 13.04 58.5681 13.04C58.1841 13.04 57.8161 13.16 57.4641 13.4C57.1121 13.64 56.8241 14.048 56.6001 14.624C56.3761 15.184 56.2641 15.968 56.2641 16.976C56.2641 17.776 56.3681 18.544 56.5761 19.28C56.7841 20 57.1361 20.592 57.6321 21.056C58.1281 21.504 58.8321 21.728 59.7441 21.728C60.2721 21.728 60.7921 21.616 61.3041 21.392C61.8321 21.168 62.2961 20.848 62.6961 20.432C62.8241 20.496 62.9441 20.616 63.0561 20.792C63.1841 20.968 63.2561 21.136 63.2721 21.296C62.7121 21.984 62.0641 22.48 61.3281 22.784C60.6081 23.072 59.7921 23.216 58.8801 23.216ZM69.4245 23.216C68.4325 23.216 67.6885 22.96 67.1925 22.448C66.7125 21.936 66.4725 21.096 66.4725 19.928V13.736C66.2325 13.656 65.9765 13.592 65.7045 13.544C65.4485 13.48 65.1285 13.44 64.7445 13.424C64.7445 13.2 64.7605 13 64.7925 12.824C64.8245 12.648 64.8805 12.456 64.9605 12.248H66.4725V9.152C66.8565 9.072 67.2325 8.936 67.6005 8.744C67.9845 8.552 68.3045 8.344 68.5605 8.12C68.7365 8.184 68.8565 8.288 68.9205 8.432C68.9845 8.576 69.0165 8.912 69.0165 9.44V12.248H72.0885C72.0885 12.44 72.0725 12.64 72.0405 12.848C72.0085 13.056 71.9525 13.256 71.8725 13.448C71.2965 13.448 70.7685 13.48 70.2885 13.544C69.8245 13.608 69.4005 13.68 69.0165 13.76V19.448C69.0165 20.008 69.0645 20.464 69.1605 20.816C69.2725 21.152 69.4245 21.4 69.6165 21.56C69.8245 21.72 70.0725 21.8 70.3605 21.8C70.6805 21.8 70.9605 21.76 71.2005 21.68C71.4565 21.584 71.6965 21.448 71.9205 21.272C72.1285 21.528 72.2485 21.832 72.2805 22.184C72.0085 22.472 71.6005 22.72 71.0565 22.928C70.5125 23.12 69.9685 23.216 69.4245 23.216ZM78.9426 23.216C77.7426 23.216 76.7506 22.96 75.9666 22.448C75.1986 21.936 74.6146 21.248 74.2146 20.384C73.8306 19.52 73.6386 18.568 73.6386 17.528C73.6386 16.472 73.8466 15.512 74.2626 14.648C74.6786 13.784 75.2706 13.096 76.0386 12.584C76.8226 12.056 77.7426 11.792 78.7986 11.792C79.8706 11.792 80.7346 12.016 81.3906 12.464C82.0466 12.912 82.5346 13.512 82.8546 14.264C83.1906 15.016 83.3826 15.864 83.4306 16.808C83.3666 17.176 83.2306 17.48 83.0226 17.72C82.7026 17.72 82.2626 17.72 81.7026 17.72C81.1586 17.72 80.5426 17.728 79.8546 17.744C79.1826 17.744 78.4866 17.76 77.7666 17.792C77.0626 17.808 76.3986 17.832 75.7746 17.864V16.544H80.7186C80.7186 15.488 80.5346 14.64 80.1666 14C79.8146 13.36 79.3026 13.04 78.6306 13.04C78.2466 13.04 77.8786 13.16 77.5266 13.4C77.1746 13.64 76.8866 14.048 76.6626 14.624C76.4386 15.184 76.3266 15.968 76.3266 16.976C76.3266 17.776 76.4306 18.544 76.6386 19.28C76.8466 20 77.1986 20.592 77.6946 21.056C78.1906 21.504 78.8946 21.728 79.8066 21.728C80.3346 21.728 80.8546 21.616 81.3666 21.392C81.8946 21.168 82.3586 20.848 82.7586 20.432C82.8866 20.496 83.0066 20.616 83.1186 20.792C83.2466 20.968 83.3186 21.136 83.3346 21.296C82.7746 21.984 82.1266 22.48 81.3906 22.784C80.6706 23.072 79.8546 23.216 78.9426 23.216ZM90.591 23.216C89.391 23.216 88.399 22.96 87.615 22.448C86.847 21.936 86.263 21.248 85.863 20.384C85.479 19.52 85.287 18.568 85.287 17.528C85.287 16.472 85.495 15.512 85.911 14.648C86.327 13.784 86.919 13.096 87.687 12.584C88.471 12.056 89.391 11.792 90.447 11.792C91.519 11.792 92.383 12.016 93.039 12.464C93.695 12.912 94.183 13.512 94.503 14.264C94.839 15.016 95.031 15.864 95.079 16.808C95.015 17.176 94.879 17.48 94.671 17.72C94.351 17.72 93.911 17.72 93.351 17.72C92.807 17.72 92.191 17.728 91.503 17.744C90.831 17.744 90.135 17.76 89.415 17.792C88.711 17.808 88.047 17.832 87.423 17.864V16.544H92.367C92.367 15.488 92.183 14.64 91.815 14C91.463 13.36 90.951 13.04 90.279 13.04C89.895 13.04 89.527 13.16 89.175 13.4C88.823 13.64 88.535 14.048 88.311 14.624C88.087 15.184 87.975 15.968 87.975 16.976C87.975 17.776 88.079 18.544 88.287 19.28C88.495 20 88.847 20.592 89.343 21.056C89.839 21.504 90.543 21.728 91.455 21.728C91.983 21.728 92.503 21.616 93.015 21.392C93.543 21.168 94.007 20.848 94.407 20.432C94.535 20.496 94.655 20.616 94.767 20.792C94.895 20.968 94.967 21.136 94.983 21.296C94.423 21.984 93.775 22.48 93.039 22.784C92.319 23.072 91.503 23.216 90.591 23.216ZM101.207 19.28C101.207 19.968 101.279 20.496 101.423 20.864C101.567 21.232 101.799 21.488 102.119 21.632C102.455 21.776 102.887 21.872 103.415 21.92C103.463 22.064 103.495 22.232 103.511 22.424C103.543 22.616 103.559 22.832 103.559 23.072C103.303 23.056 102.999 23.04 102.647 23.024C102.295 23.024 101.919 23.016 101.519 23C101.119 23 100.719 23 100.319 23C99.7114 23 99.0794 23 98.4234 23C97.7674 23.016 97.2554 23.04 96.8874 23.072C96.8874 22.816 96.8954 22.592 96.9114 22.4C96.9274 22.208 96.9674 22.048 97.0314 21.92C97.4634 21.888 97.7914 21.808 98.0154 21.68C98.2554 21.552 98.4234 21.336 98.5194 21.032C98.6154 20.728 98.6634 20.296 98.6634 19.736V17.552H101.207V19.28ZM101.207 15.968V17.912H98.6634V15.248L101.207 12.92C101.207 13.416 101.159 13.88 101.063 14.312C100.967 14.744 100.871 15.192 100.775 15.656L101.207 15.968ZM100.679 15.8C100.839 15.368 100.967 15 101.063 14.696C101.175 14.376 101.287 14.12 101.399 13.928C101.751 13.368 102.167 12.904 102.647 12.536C103.143 12.168 103.711 11.984 104.351 11.984C104.959 11.984 105.511 12.176 106.007 12.56C105.975 12.832 105.943 13.152 105.911 13.52C105.879 13.872 105.855 14.232 105.839 14.6C105.839 14.952 105.839 15.28 105.839 15.584C105.663 15.648 105.431 15.704 105.143 15.752C104.855 15.8 104.567 15.824 104.279 15.824C104.247 15.104 104.127 14.624 103.919 14.384C103.727 14.128 103.471 14 103.151 14C102.895 14 102.607 14.152 102.287 14.456C101.983 14.76 101.727 15.16 101.519 15.656C101.311 16.152 101.207 16.696 101.207 17.288L100.679 15.8ZM98.6634 17.912V15.416C98.6634 15 98.6234 14.672 98.5434 14.432C98.4794 14.176 98.3194 13.984 98.0634 13.856C97.8074 13.728 97.4154 13.656 96.8874 13.64C96.8874 13.448 96.9034 13.264 96.9354 13.088C96.9674 12.912 97.0234 12.752 97.1034 12.608C97.7114 12.576 98.3594 12.48 99.0474 12.32C99.7354 12.16 100.263 11.984 100.631 11.792C100.791 11.856 100.927 11.968 101.039 12.128C101.151 12.288 101.207 12.552 101.207 12.92L98.6634 17.912Z" fill="#F2F2F2"/>
</svg>
